<?xml version="1.0" standalone="no"?>
<!DOCTYPE svg PUBLIC "-//W3C//DTD SVG 20010904//EN"
 "http://www.w3.org/TR/2001/REC-SVG-20010904/DTD/svg10.dtd">
<svg version="1.0" xmlns="http://www.w3.org/2000/svg"
 width="352.000000pt" height="352.000000pt" viewBox="0 0 352.000000 352.000000"
 preserveAspectRatio="xMidYMid meet">
<metadata>
Created by potrace 1.11, written by Peter Selinger 2001-2013
</metadata>
<g transform="translate(0.000000,352.000000) scale(0.100000,-0.100000)"
fill="#000000" stroke="none">
<path d="M1934 2583 c-37 -84 -63 -140 -95 -211 -16 -34 -47 -103 -69 -152
-22 -49 -53 -119 -70 -155 -17 -36 -48 -105 -69 -153 -21 -48 -53 -118 -71
-157 -18 -38 -59 -131 -92 -205 -82 -185 -143 -320 -189 -418 -21 -46 -39 -85
-39 -87 0 -2 -16 -38 -35 -79 -19 -42 -35 -78 -35 -81 0 -3 60 -5 133 -5 l134
0 28 63 c15 34 37 82 47 107 11 25 31 70 45 100 26 58 100 221 251 555 50 110
104 232 122 270 17 39 40 88 50 110 53 120 167 370 196 432 18 40 36 84 40 98
l6 25 -131 0 -132 0 -25 -57z"/>
<path d="M545 2159 c-132 -111 -308 -259 -392 -329 l-152 -127 32 -30 c18 -16
115 -99 217 -184 102 -84 232 -193 290 -242 186 -157 248 -207 258 -207 6 0
48 41 95 91 l86 92 -158 131 c-87 72 -218 180 -291 240 -72 60 -128 112 -123
116 9 9 128 106 348 285 81 66 165 134 187 152 l38 32 -86 90 c-48 50 -92 91
-98 91 -6 0 -119 -91 -251 -201z"/>
<path d="M2667 2223 c-48 -47 -86 -87 -85 -88 2 -1 57 -44 123 -96 66 -52 191
-151 278 -219 149 -118 157 -126 139 -140 -18 -14 -52 -41 -389 -305 l-153
-120 87 -87 c51 -51 91 -84 98 -80 31 19 755 605 755 610 -1 7 -745 604 -759
609 -3 2 -45 -36 -94 -84z"/>
</g>
</svg>
